<svg width="92" height="67" viewBox="0 0 92 67" fill="none" xmlns="http://www.w3.org/2000/svg">
<path d="M38.9583 54.1667L62.5 30.625L56.4583 24.5833L38.8542 42.1875L30.1042 33.4375L24.1667 39.375L38.9583 54.1667ZM22.9167 66.6667C16.5972 66.6667 11.1986 64.4792 6.72083 60.1042C2.24028 55.7292 0 50.3819 0 44.0625C0 38.6458 1.63194 33.8194 4.89583 29.5833C8.15972 25.3472 12.4306 22.6389 17.7083 21.4583C19.4444 15.0694 22.9167 9.89583 28.125 5.9375C33.3333 1.97917 39.2361 0 45.8333 0C53.9583 0 60.85 2.82917 66.5083 8.4875C72.1694 14.1486 75 21.0417 75 29.1667C79.7917 29.7222 83.7681 31.7875 86.9292 35.3625C90.0875 38.9403 91.6667 43.125 91.6667 47.9167C91.6667 53.125 89.8444 57.5528 86.2 61.2C82.5528 64.8444 78.125 66.6667 72.9167 66.6667H22.9167ZM22.9167 58.3333H72.9167C75.8333 58.3333 78.2986 57.3264 80.3125 55.3125C82.3264 53.2986 83.3333 50.8333 83.3333 47.9167C83.3333 45 82.3264 42.5347 80.3125 40.5208C78.2986 38.5069 75.8333 37.5 72.9167 37.5H66.6667V29.1667C66.6667 23.4028 64.6361 18.4889 60.575 14.425C56.5111 10.3639 51.5972 8.33333 45.8333 8.33333C40.0694 8.33333 35.1569 10.3639 31.0958 14.425C27.0319 18.4889 25 23.4028 25 29.1667H22.9167C18.8889 29.1667 15.4514 30.5903 12.6042 33.4375C9.75694 36.2847 8.33333 39.7222 8.33333 43.75C8.33333 47.7778 9.75694 51.2153 12.6042 54.0625C15.4514 56.9097 18.8889 58.3333 22.9167 58.3333Z" fill="#075B19"/>
</svg>
