<svg width="30" height="29" viewBox="0 0 30 29" fill="none" xmlns="http://www.w3.org/2000/svg">
<path d="M14.9482 9.52578C12.2243 9.52578 10.0015 11.6674 10.0015 14.2917C10.0015 16.916 12.2243 19.0576 14.9482 19.0576C17.672 19.0576 19.8949 16.916 19.8949 14.2917C19.8949 11.6674 17.672 9.52578 14.9482 9.52578ZM29.7845 14.2917C29.7845 12.3181 29.8031 10.3624 29.688 8.3924C29.573 6.10418 29.0312 4.07338 27.2945 2.40012C25.554 0.723283 23.4499 0.204858 21.0749 0.0940224C19.0265 -0.0168133 16.9966 0.00106347 14.9519 0.00106347C12.9034 0.00106347 10.8736 -0.0168133 8.82884 0.0940224C6.45384 0.204858 4.34603 0.726858 2.60931 2.40012C0.868877 4.07696 0.330791 6.10418 0.215752 8.3924C0.100713 10.366 0.119268 12.3217 0.119268 14.2917C0.119268 16.2617 0.100713 18.221 0.215752 20.191C0.330791 22.4793 0.872588 24.51 2.60931 26.1833C4.34974 27.8601 6.45384 28.3786 8.82884 28.4894C10.8773 28.6002 12.9072 28.5824 14.9519 28.5824C17.0003 28.5824 19.0302 28.6002 21.0749 28.4894C23.4499 28.3786 25.5577 27.8566 27.2945 26.1833C29.0349 24.5065 29.573 22.4793 29.688 20.191C29.8068 18.221 29.7845 16.2653 29.7845 14.2917ZM14.9482 21.6247C10.7363 21.6247 7.33704 18.3497 7.33704 14.2917C7.33704 10.2337 10.7363 6.95868 14.9482 6.95868C19.1601 6.95868 22.5593 10.2337 22.5593 14.2917C22.5593 18.3497 19.1601 21.6247 14.9482 21.6247ZM22.871 8.37094C21.8876 8.37094 21.0935 7.60582 21.0935 6.65835C21.0935 5.71089 21.8876 4.94576 22.871 4.94576C23.8544 4.94576 24.6486 5.71089 24.6486 6.65835C24.6489 6.88333 24.6031 7.10616 24.5139 7.31407C24.4246 7.52198 24.2937 7.71088 24.1286 7.86997C23.9635 8.02905 23.7674 8.15519 23.5516 8.24116C23.3358 8.32712 23.1045 8.37123 22.871 8.37094Z" fill="white"/>
</svg>
