<svg width="33" height="31" viewBox="0 0 33 31" fill="none" xmlns="http://www.w3.org/2000/svg">
<path fill-rule="evenodd" clip-rule="evenodd" d="M0.526368 2.58248C0.526368 1.89757 0.808768 1.2407 1.31144 0.756394C1.81412 0.272085 2.49589 3.44281e-06 3.20678 3.44281e-06H29.9264C30.2787 -0.000550921 30.6276 0.0658481 30.9532 0.195399C31.2789 0.324949 31.5748 0.515108 31.824 0.754986C32.0733 0.994865 32.271 1.27975 32.4058 1.59334C32.5406 1.90693 32.6099 2.24306 32.6097 2.58248V28.3258C32.6101 28.6653 32.541 29.0015 32.4064 29.3152C32.2717 29.629 32.0742 29.914 31.8251 30.1542C31.576 30.3943 31.2803 30.5847 30.9547 30.7146C30.6291 30.8445 30.2802 30.9112 29.9278 30.9111H3.20678C2.85466 30.9111 2.50599 30.8442 2.1807 30.7143C1.8554 30.5845 1.55985 30.3941 1.31093 30.1542C1.06201 29.9142 0.864601 29.6294 0.729983 29.3159C0.595366 29.0024 0.526176 28.6664 0.526368 28.3272V2.58248ZM13.2255 11.7855H17.5699V13.8875C18.197 12.6792 19.8012 11.5916 22.2118 11.5916C26.8332 11.5916 27.9284 13.9985 27.9284 18.4146V26.5947H23.2516V19.4206C23.2516 16.9055 22.6245 15.4864 21.032 15.4864C18.8226 15.4864 17.9039 17.0165 17.9039 19.4206V26.5947H13.2255V11.7855ZM5.2047 26.4023H9.88303V11.5916H5.2047V26.4009V26.4023ZM10.5524 6.76109C10.5612 7.14702 10.49 7.53076 10.3428 7.88979C10.1956 8.24882 9.97542 8.5759 9.69525 8.85185C9.41507 9.1278 9.08051 9.34704 8.7112 9.49673C8.34188 9.64641 7.94526 9.72352 7.5446 9.72352C7.14393 9.72352 6.74731 9.64641 6.378 9.49673C6.00868 9.34704 5.67412 9.1278 5.39395 8.85185C5.11377 8.5759 4.89363 8.24882 4.74643 7.88979C4.59924 7.53076 4.52796 7.14702 4.53678 6.76109C4.5541 6.00357 4.87859 5.28269 5.44078 4.75284C6.00297 4.22299 6.75815 3.92629 7.5446 3.92629C8.33104 3.92629 9.08622 4.22299 9.64841 4.75284C10.2106 5.28269 10.5351 6.00357 10.5524 6.76109Z" fill="white"/>
</svg>
