<svg width="80" height="89" viewBox="0 0 80 89" fill="none" xmlns="http://www.w3.org/2000/svg">
<path d="M21.6669 13.3333H13.3336C11.1234 13.3333 9.00382 14.2112 7.44102 15.774C5.87822 17.3368 5.00024 19.4564 5.00024 21.6666V71.6666C5.00024 73.8767 5.87822 75.9963 7.44102 77.5591C9.00382 79.1219 11.1234 79.9999 13.3336 79.9999H37.0711M63.3336 42.4999V21.6666C63.3336 19.4564 62.4556 17.3368 60.8928 15.774C59.33 14.2112 57.2104 13.3333 55.0002 13.3333H46.6669" stroke="#075B19" stroke-width="8.33333" stroke-linecap="round" stroke-linejoin="round"/>
<path d="M38.3337 5H30.0003C25.398 5 21.667 8.73096 21.667 13.3333C21.667 17.9357 25.398 21.6667 30.0003 21.6667H38.3337C42.936 21.6667 46.667 17.9357 46.667 13.3333C46.667 8.73096 42.936 5 38.3337 5Z" stroke="#075B19" stroke-width="8.33333" stroke-linecap="round" stroke-linejoin="round"/>
<path d="M21.667 38.3333H38.3337M21.667 54.9999H34.167" stroke="#075B19" stroke-width="8.33333" stroke-linecap="round" stroke-linejoin="round"/>
<path d="M57.0837 75.8333C62.8366 75.8333 67.5003 71.1696 67.5003 65.4167C67.5003 59.6637 62.8366 55 57.0837 55C51.3307 55 46.667 59.6637 46.667 65.4167C46.667 71.1696 51.3307 75.8333 57.0837 75.8333Z" stroke="#075B19" stroke-width="8.33333" stroke-linecap="round" stroke-linejoin="round"/>
<path d="M65.417 73.75L75.8337 84.1667" stroke="#075B19" stroke-width="8.33333" stroke-linecap="round" stroke-linejoin="round"/>
</svg>
