<svg width="1026" height="130" viewBox="0 0 1026 130" fill="none" xmlns="http://www.w3.org/2000/svg">
<path d="M999 50.15C1004.18 50.15 1008.38 45.2475 1008.38 39.2C1008.38 33.1525 1004.18 28.25 999 28.25C993.822 28.25 989.625 33.1525 989.625 39.2C989.625 45.2475 993.822 50.15 999 50.15Z" stroke="#107626" stroke-width="4" stroke-linecap="round" stroke-linejoin="round"/>
<path d="M999 10C992.37 10 986.011 13.0764 981.322 18.5525C976.634 24.0285 974 31.4557 974 39.2C974 46.1058 975.256 50.6245 978.688 55.625L999 83L1019.31 55.625C1022.74 50.6245 1024 46.1058 1024 39.2C1024 31.4557 1021.37 24.0285 1016.68 18.5525C1011.99 13.0764 1005.63 10 999 10V10Z" stroke="#107626" stroke-width="3" stroke-linecap="round" stroke-linejoin="round"/>
<path d="M2 127.146C15.13 93.1274 36.2933 60.506 58.6325 31.7842C77.038 8.1199 98.2243 3.37523 127.322 2.37185C164.784 1.08006 196.834 2.07722 228.53 23.3807C282.419 59.6012 342.769 103.897 407.379 119.656C434.073 126.167 468.007 120.569 495.251 120.569C518.65 120.569 543.46 123.098 566.681 119.839C611.258 113.582 659.231 108.167 700.954 90.2435C716.031 83.7669 734.922 65.0498 751.741 64.6676C808.825 63.3702 853.734 67.6359 907.023 90.2435C934.545 101.919 962.935 94.4273 991.789 100.839" stroke="black" stroke-opacity="0.32" stroke-width="4" stroke-linecap="round" stroke-dasharray="20 20"/>
</svg>
