<svg width="80" height="61" viewBox="0 0 80 61" fill="none" xmlns="http://www.w3.org/2000/svg">
<path d="M79.185 13.1607C79.185 13.1607 78.4049 7.18201 75.9998 4.55854C72.9546 1.10576 69.5443 1.08408 67.9843 0.883523C56.7986 5.6539e-07 39.9975 0 39.9975 0H39.9675C39.9675 0 23.1714 5.6539e-07 11.9807 0.883523C10.4157 1.0895 7.01044 1.10576 3.96525 4.55854C1.5601 7.18201 0.79505 13.1607 0.79505 13.1607C0.79505 13.1607 0 20.1747 0 27.2049V33.7798C0 40.7938 0.79505 47.824 0.79505 47.824C0.79505 47.824 1.5751 53.8027 3.96525 56.4316C7.01044 59.8844 11.0107 59.7706 12.7958 60.1391C19.2012 60.8004 40.0025 61.001 40.0025 61.001C40.0025 61.001 56.8186 60.9685 68.0042 60.1012C69.5694 59.9007 72.9746 59.879 76.0198 56.4262C78.4249 53.8027 79.205 47.8186 79.205 47.8186C79.205 47.8186 80 40.8046 80 33.7744V27.1995C79.985 20.1855 79.19 13.1553 79.19 13.1553L79.185 13.1607ZM31.712 41.7532V17.3777L53.3233 29.6061L31.712 41.7532Z" fill="white" fill-opacity="0.73"/>
</svg>
