<svg width="36" height="28" viewBox="0 0 36 28" fill="none" xmlns="http://www.w3.org/2000/svg">
<path d="M34.583 4.36457C34.3838 3.51941 33.9931 2.74868 33.4502 2.1295C32.9072 1.51033 32.231 1.06443 31.4893 0.836432C28.7588 1.78814e-07 17.8135 0 17.8135 0C17.8135 0 6.86816 -1.19209e-07 4.1377 0.831982C3.39559 1.05924 2.71904 1.50489 2.176 2.12418C1.63296 2.74347 1.24254 3.5146 1.04395 4.36012C0.313476 7.4745 0.313477 13.9702 0.313477 13.9702C0.313477 13.9702 0.313476 20.4659 1.04395 23.5758C1.44629 25.2932 2.63379 26.6457 4.1377 27.1039C6.86816 27.9404 17.8135 27.9404 17.8135 27.9404C17.8135 27.9404 28.7588 27.9404 31.4893 27.1039C32.9971 26.6457 34.1807 25.2932 34.583 23.5758C35.3135 20.4659 35.3135 13.9702 35.3135 13.9702C35.3135 13.9702 35.3135 7.4745 34.583 4.36457ZM14.3369 19.932V8.00839L23.3994 13.9257L14.3369 19.932Z" fill="white"/>
</svg>
